<svg viewBox="0 0 1024 1024" xmlns="http://www.w3.org/2000/svg">
<def>
<style>.url{fill:#0065ff} .num{fill:#f00} .str{fill:#377e21}</style>
</def>
<g font-family="Courier New" font-weight="bold" transform="translate(96,96) scale(0.8125)">
<rect id="bg" fill="#16c3ff" height="1024" rx="200" width="1024"/>
<text id="ext" font-size="200" x="205" y="905">
<tspan x="205" y="905">json</tspan>
</text>
<g id="lines">
  <path d="m212 122h600v16h-600z"/>
  <path d="m212 172h600v16h-600z"/>
  <path d="m212 222h600v16h-600z"/>
  <path d="m212 272h600v16h-600z"/>
  <path d="m212 322h600v16h-600z"/>
  <path d="m212 372h600v16h-600z"/>
  <path d="m212 422h600v16h-600z"/>
  <path d="m212 472h600v16h-600z"/>
  <path d="m212 522h600v16h-600z"/>
  <path d="m212 572h600v16h-600z"/>
  <path d="m212 622h600v16h-600z"/>
  <path d="m212 672h600v16h-600z"/>
</g>
<circle id="lens" cx="490" cy="460" fill="#fff" r="290"/>
<text id="json" fill="#444" x="235" y="240" font-size="36" xml:space="preserve">
  <tspan x="235" y="240">    md_url": "<tspan class="url">https</tspan></tspan>
  <tspan x="235" y="290">  ml_url": "<tspan class="url">https://gi</tspan></tspan>
  <tspan x="235" y="340">nd": <tspan class="num">235986404</tspan>,</tspan>
  <tspan x="235" y="390">author": {</tspan>
  <tspan x="235" y="440"> "login": <tspan class="str">"relikd"</tspan>,</tspan>
  <tspan x="235" y="490"> "id": <tspan class="num">1321720</tspan>,</tspan>
  <tspan x="235" y="540"> "node_id": <tspan class="str">"MDQ6VXNlcjE</tspan></tspan>
  <tspan x="235" y="590"> "avatar_url": "<tspan class="url">https://</tspan></tspan>
  <tspan x="235" y="640"> "gravatar_id": <tspan class="str">""</tspan>,</tspan>
  <tspan x="235" y="690"> "url": "<tspan class="url">https://api</tspan>
  </tspan>
</text>
<path id="handle" fill="#0b5e7f" d="m830 900c-9 8-22 6-29-3l-148-199 53-47 179 172c8 8 8 22-1 29z"/>
<circle id="loupe" stroke="#0b5e7f" cx="490" cy="460" fill="none" r="290" stroke-width="40"/>
</g>
</svg>